<svg width="192" height="192" viewBox="0 0 192 192" fill="none" xmlns="http://www.w3.org/2000/svg">
<path d="M63.0239 127.93L66.1439 137.222L70.2239 135.13L65.9903 126.346C65.9903 126.346 63.2255 127.776 63.0239 127.93Z" fill="#21CEDF"/>
<path fill-rule="evenodd" clip-rule="evenodd" d="M71.799 184.49C70.4431 184.956 69.4643 185.405 68.8496 185.78L139.808 188.215C138.627 187.71 136.829 187.066 134.483 186.375C130.939 186.546 125.56 186.494 123.13 185.75C120.896 185.067 114.669 185.366 108.733 185.651C104.743 185.842 100.885 186.027 98.4575 185.904C96.2255 185.79 92.6386 185.698 88.888 185.601C82.4917 185.436 75.6194 185.259 74.1791 184.944C73.7576 184.852 73.3176 184.773 72.8887 184.696C72.5099 184.629 72.1398 184.563 71.799 184.49Z" fill="#4A1AC7"/>
<path d="M149.51 92.1599C150.71 93.0047 150.557 92.8223 149.51 92.9567C148.464 93.0911 147.917 93.1295 147.792 93.8111C147.689 94.3662 147.532 94.9096 147.321 95.4335C147.272 95.397 147.227 95.3552 147.187 95.3087C145.267 92.4863 146.755 93.2159 143.232 92.9279C142.531 92.9279 144.461 92.2751 145.027 91.0079C145.238 90.5375 144.249 88.7807 144.806 89.0879C146.496 89.9807 145.949 89.6543 146.16 89.7791C146.793 90.1727 148.675 88.6271 149.395 88.4159C149.616 89.9711 147.84 90.9311 149.51 92.1599Z" fill="#FFEAB6"/>
<path d="M163.718 62.4C164.189 62.5728 162.758 62.9856 162.173 63.4272C161.213 64.1376 162.115 64.7328 162.038 65.7312C161.289 65.4144 160.445 63.8112 159.331 63.8112C157.325 64.4832 157.2 64.7712 156.845 64.7712C156.96 64.0512 158.649 62.592 157.689 61.8144C157.315 61.5264 156.384 60.1536 156.854 60.2592C158.717 60.6912 158.707 60.7776 159.062 60.528C160.934 59.2416 160.982 57.264 161.328 59.9712C161.625 62.4 161.021 61.44 163.718 62.4Z" fill="#FFEAB6"/>
<path d="M161.386 30.7776C161.338 30.8448 161.299 30.9312 161.232 30.96C158.813 32.208 158.65 32.0544 158.794 32.88C159.158 35.1552 159.072 34.8 159.014 35.1936C156.451 32.8704 157.469 33.168 157.094 33.1008C156.384 32.9952 155.059 33.792 153.782 34.0608C153.341 34.0608 153.514 33.9648 154.618 32.1408C155.837 30.1536 149.904 27.8016 155.05 29.2608C156.01 29.5392 155.837 29.4048 157.584 27.0528C158.141 26.2944 157.786 29.7216 159.082 29.8368C159.533 29.8368 160.157 30.3744 161.184 30.6048C161.259 30.6519 161.327 30.7102 161.386 30.7776Z" fill="#FFEAB6"/>
<path d="M62.0831 72.5759C66.9599 71.4815 62.0831 73.0175 63.1679 74.8415C64.0607 76.4159 64.4255 76.2719 62.6879 75.8879C60.6719 75.4367 61.5839 75.3023 59.4911 77.4239C59.2415 77.6831 59.5391 76.6271 59.6159 75.6287C59.7023 74.4383 57.3983 74.0543 57.0623 73.4303C57.2255 73.4303 56.9375 73.4303 58.4159 73.2863C60.2399 73.1327 59.3759 72.1055 60.1727 70.4735C60.8255 71.0399 61.4975 72.7007 62.0831 72.5759Z" fill="#FFEAB6"/>
<path d="M71.8942 50.9951C72.1342 51.3983 70.9342 50.9951 69.235 50.3615C68.275 50.0063 68.4958 49.2863 66.2302 52.4543C65.3566 53.6927 66.6334 49.7279 65.1838 49.1903C61.9006 47.9615 61.9006 48.2303 65.5102 46.9247C66.2974 46.6367 65.923 44.9183 66.4702 43.4399C69.8974 46.6463 67.0078 46.3775 72.019 45.2255C71.2798 47.2031 69.7438 47.7695 70.627 48.7967C71.1173 49.4882 71.5416 50.2243 71.8942 50.9951Z" fill="#FFEAB6"/>
<path d="M98.0735 107.338C98.5247 109.469 98.9663 109.718 98.4671 109.642C94.1183 108.96 89.8751 104.659 89.0015 101.05C88.8383 100.368 88.7231 100.435 89.4527 100.186C91.5935 99.4272 92.6975 98.6112 92.4287 99.0912C91.8911 100.051 92.2751 101.29 92.2079 101.731C91.9583 103.392 93.1103 104.794 94.7711 105.677C94.9919 105.792 94.9151 105.773 96.3839 105.869C97.3439 105.638 97.4687 105.542 97.5839 105.869C97.7986 106.34 97.9627 106.832 98.0735 107.338Z" fill="#F2F2F2"/>
<path d="M132.288 34.2527C134.918 35.3567 135.657 35.5295 133.881 35.9711C132.768 35.7023 132.633 35.6831 131.961 34.3199C131.894 34.1471 132.105 34.1759 132.288 34.2527Z" fill="#E6FCFF"/>
<path d="M137.549 33.8303C137.712 33.8303 137.702 33.9455 137.635 34.0319C137.241 34.5599 136.79 35.3375 136.051 34.8671C134.131 33.6287 130.387 33.0623 131.414 31.4591C131.837 30.8063 131.491 31.5551 133.68 32.4959C136.051 33.5135 136.905 33.9071 137.549 33.8303Z" fill="#E6FCFF"/>
<path d="M138.336 31.7568C138.922 31.8144 138.202 32.8608 137.27 32.8416C135.725 32.304 131.069 30.5952 132.355 29.5776C132.509 29.4624 132.432 29.136 132.653 29.1552C133.037 29.1552 132.528 29.5584 135.072 30.576C137.616 31.5936 137.837 31.68 138.336 31.7568Z" fill="#E6FCFF"/>
<path d="M133.526 27.1007C138.614 30.9407 140.63 28.9631 139.094 30.7487C138.806 31.0847 137.693 30.5183 137.27 30.3647C135.216 29.6063 131.789 28.5119 133.526 27.1007Z" fill="#E6FCFF"/>
<path d="M146.985 20.2752C147.283 20.3616 147.062 21.0624 146.793 20.9184C145.776 20.4 146.63 20.16 146.985 20.2752Z" fill="#FFD152"/>
<path d="M136.838 17.6449C136.31 18.0769 136.07 17.2417 136.416 17.1457C136.531 17.1169 136.733 17.4817 136.838 17.6449Z" fill="#FFD152"/>
<path d="M140.457 9.79189C152.352 9.72469 154.915 25.3727 142.55 26.7839C140.937 26.9759 140.63 26.5151 140.131 27.1583C139.229 28.4351 139.814 29.0111 139.075 28.8191C137.566 28.4335 136.127 27.8114 134.813 26.9759C133.593 26.2367 135.773 26.0159 135.139 24.6431C134.505 23.2703 134.477 24.3167 133.478 22.7231C128.861 15.3599 135.408 9.51349 140.457 9.79189ZM146.39 22.0223C146.995 23.5199 148.877 19.9775 147.427 19.5071C145.977 19.0367 145.593 20.0543 145.363 19.9967C143.136 19.4975 144.518 19.7855 143.232 19.1231C142.637 18.8159 142.166 19.5359 141.686 18.8543C140.928 17.7599 141.475 18.8543 137.913 17.4335C137.664 17.3375 137.529 16.9919 137.337 16.7615C137.145 16.5311 136.848 16.5311 136.493 16.4351C135.456 16.1567 134.861 18.2783 136.493 18.5567C136.665 18.5567 136.79 18.5567 136.733 18.8543C136.368 20.4191 138.489 21.7343 138.067 22.4927C137.493 23.5902 137.088 24.7684 136.867 25.9871C136.819 26.2751 137.078 26.1215 137.184 26.2079C137.587 26.5535 137.779 24.7487 138.816 22.7999C139.517 21.5039 137.481 20.2079 137.529 19.0943C137.587 17.6639 138.144 18.4799 139.449 18.8927C140.179 19.1231 140.736 18.8927 140.937 19.3727C141.068 19.6292 141.286 19.8303 141.552 19.9396C141.818 20.0488 142.114 20.0589 142.387 19.9679C143.27 19.7375 143.04 20.4191 144.077 20.6399C145.113 20.8607 145.104 20.8127 145.104 21.1967C145.104 21.3311 145.104 21.4751 144.941 21.5135C144.447 21.6819 143.976 21.9108 143.539 22.1951C142.992 22.4543 143.232 22.0127 142.32 22.6079C140.947 23.5007 141.177 22.9343 140.601 23.3855C139.641 24.1631 137.539 26.3807 138.211 26.9087C138.883 27.4367 138.96 26.0543 140.323 24.8063C141.686 23.5583 141.475 24.1631 141.936 23.8463C142.896 23.2511 143.03 23.1647 143.174 23.1551C144 23.0879 144.633 22.3967 145.257 22.3391C146.102 22.2623 145.881 21.5231 146.064 21.5807C146.246 21.6383 146.323 21.8591 146.39 22.0223Z" fill="#FFD152"/>
<path d="M64.1087 18.6721C64.2595 19.1709 64.2554 19.7038 64.0967 20.2001C63.9381 20.6965 63.6324 21.133 63.2203 21.4519C62.8081 21.7707 62.3088 21.9569 61.7885 21.9857C61.2682 22.0146 60.7514 21.8848 60.3065 21.6135C59.8616 21.3421 59.5096 20.9421 59.297 20.4663C59.0844 19.9905 59.0214 19.4614 59.1161 18.949C59.2109 18.4366 59.459 17.965 59.8277 17.5967C60.1964 17.2284 60.6682 16.9808 61.1807 16.8865C61.8027 16.7743 62.4443 16.894 62.9839 17.2231C63.5235 17.5522 63.9237 18.0677 64.1087 18.6721Z" fill="#9EDEFF"/>
<path d="M54.5951 26.9375C55.0175 26.4575 55.5551 25.9775 55.8143 26.6207C55.8143 26.6207 47.0879 36.3743 47.0687 36.3935C46.3583 35.9039 46.0799 36.9023 54.5951 26.9375Z" fill="#9EDEFF"/>
<path d="M60.3841 35.424C60.5569 35.8368 60.4801 35.6832 54.4321 41.6736C54.1249 41.9904 54.2689 41.9808 53.9329 37.1712C53.9329 36.72 57.7729 33.7152 59.0113 32.2368C60.2497 30.7584 59.9233 31.008 60.3841 35.424Z" fill="#9EDEFF"/>
<path d="M49.8624 23.0399C50.6016 22.9439 48.5088 24.6431 46.9824 26.9471C46.6368 27.4463 45.3312 29.1935 44.8224 29.2607C44.8224 29.2607 40.0224 29.4047 40.0224 29.3759C39.888 29.1935 42.4512 26.7455 44.8224 24.0287C45.12 23.5775 45.12 23.6543 49.8624 23.0399Z" fill="#9EDEFF"/>
<path d="M73.2 9.11037C73.1057 10.4687 72.808 11.8052 72.3168 13.0752C70.0032 18.72 70.2048 18.2112 69.5712 17.0784C66.6336 11.8464 62.5632 11.3184 63.3312 10.848C65.2782 9.41432 67.4664 8.34134 69.792 7.67997C73.4304 6.71997 73.0272 7.67997 73.2 9.11037Z" fill="#70BEE0"/>
<path d="M131.443 79.4015C130.704 76.8767 132.528 70.5119 133.075 69.1007C133.817 66.5566 134.033 63.8878 133.709 61.2575C133.325 58.2527 131.213 53.1647 130.099 50.6975C128.986 48.2303 124.147 43.6607 122.611 42.4703C121.075 41.2799 113.712 38.1887 111.091 37.0367C108.47 35.8847 103.757 35.6255 103.757 35.6255C103.053 34.7454 102.072 34.1302 100.973 33.8808C99.8742 33.6314 98.7233 33.7625 97.7087 34.2527C94.8287 35.5295 94.3487 38.6015 94.0991 38.6687C88.1471 38.6015 87.3119 43.4015 87.3119 43.4015C85.1039 45.6383 85.7183 47.0495 86.6399 48.5183C87.5615 49.9871 90.5471 50.0255 90.5471 50.0255C90.5471 50.0255 108.701 46.0799 114.24 54.7199C119.779 63.3599 117.6 77.4527 117.6 77.4527L117.754 91.4495C118.633 92.2844 119.732 92.8514 120.922 93.0843C122.112 93.3173 123.344 93.2064 124.474 92.7647C121.027 90.1343 121.69 88.6367 121.69 88.6367C126.912 91.8623 129.216 88.6367 129.216 88.6367C128.329 88.4631 127.497 88.0749 126.794 87.5059C126.091 86.937 125.539 86.2046 125.184 85.3727C126.723 85.8389 128.311 86.1193 129.917 86.2079C134.208 86.6207 135.168 84.2879 135.168 84.2879C135.168 84.2879 132.173 81.9263 131.443 79.4015Z" fill="#3D3934"/>
<path d="M94.6751 86.3999C94.4065 86.1005 94.258 85.7125 94.258 85.3103C94.258 84.9082 94.4065 84.5202 94.6751 84.2207C88.7711 80.5823 90.0382 77.5775 88.771 78.1823C87.4122 78.7821 85.961 79.1457 84.4798 79.2575C84.0958 79.3727 85.5455 81.8495 88.7423 82.9151C91.4495 83.8175 85.8623 86.3999 85.0079 86.4671C83.6158 86.5727 89.4911 90.0959 92.8223 87.8495C92.9005 87.7861 92.9967 87.7488 93.0973 87.7431C93.1979 87.7373 93.2978 87.7634 93.3827 87.8175C93.4677 87.8717 93.5334 87.9512 93.5707 88.0448C93.6079 88.1385 93.6148 88.2414 93.5902 88.3391C93.32 89.6808 92.8372 90.9707 92.1598 92.1599C93.8206 92.4575 95.7215 91.3632 97.1039 90.4223C97.4687 90.1824 97.3343 89.7599 97.4783 89.4623C97.5359 89.3279 96.3263 88.4351 94.6751 86.3999Z" fill="#3D3934"/>
<path d="M79.555 98.2272C81.3118 101.875 81.3886 101.693 80.9566 101.846L61.4398 108.288C61.2094 108.288 61.5262 108.835 57.187 100.253C56.9662 99.8208 55.8046 100.406 69.5038 95.8176C71.8846 95.0208 74.1502 94.224 76.6942 93.3888C77.347 93.1776 76.7998 92.5248 79.555 98.2272ZM76.9342 101.347C76.5214 100.637 76.195 101.126 75.6862 101.146C75.5614 101.146 63.1294 104.986 62.2462 105.408C61.8142 105.59 61.4206 106.166 61.9486 106.301C62.1502 106.349 76.195 102.202 76.9342 101.347ZM73.9198 97.296C74.227 97.1424 74.4382 96.6048 73.7854 96.4704C73.6702 96.4704 72.931 96.6912 71.8654 96.96C68.0734 97.92 67.5454 98.6304 66.5662 98.6112C65.4334 98.6112 65.4814 99.072 63.7918 99.4464C59.9518 100.301 60.5758 100.666 59.5486 100.714C59.4238 100.714 59.2222 101.011 59.1838 101.126C59.0974 101.472 60.1438 101.674 60.643 101.395C61.7106 100.822 62.8764 100.454 64.0798 100.31C65.6638 100.032 65.6062 99.5232 66.5374 99.5712C68.3134 99.3312 68.9854 98.6112 70.5982 98.208C72.211 97.8048 72.691 97.92 73.9198 97.296ZM71.395 100.8C71.5557 100.811 71.7149 100.763 71.8435 100.666C71.9721 100.569 72.0617 100.429 72.0958 100.272C72.0958 99.168 68.2558 100.925 66.4414 101.232C64.7902 101.51 61.0366 102.605 60.4894 103.2C60.1054 103.622 60.3166 103.862 60.835 103.891C62.755 103.238 62.4958 103.152 63.187 102.931C67.1806 101.808 64.435 102.73 68.6686 101.51C70.5886 100.992 70.7134 100.8 71.395 100.8Z" fill="#FFF5DB"/>
<path d="M64.3199 124.138C64.6079 124.723 63.5519 125.05 62.9375 125.165C62.5727 124.925 63.3791 126.259 54.5855 108.547C48.9599 97.3536 48.9599 97.8048 49.5359 97.8048C52.5311 97.8144 47.8943 91.2 64.3199 124.138Z" fill="#21CEDF"/>
<path d="M51.667 104.784C62.3614 126.48 62.1598 125.482 61.699 125.645C55.939 127.622 58.819 131.405 58.2238 132.701C57.907 132.25 38.0638 91.5935 37.9294 91.2575C38.083 91.1999 37.5646 90.9407 45.9742 95.9615C48.6718 97.5743 47.107 95.5199 51.667 104.784Z" fill="#21CEDF"/>
<path d="M81.2159 94.1473C77.9423 87.3601 78.1631 87.7633 77.8943 87.8593C75.0143 88.8865 59.9423 93.8881 57.3983 94.7233C51.1295 96.7969 51.5231 96.3937 51.9071 97.1425C66.5951 125.856 64.3871 124.234 66.0671 123.782C68.0351 123.734 66.7199 127.008 66.7871 127.181C66.8543 127.354 67.3343 128.554 67.6031 128.458C68.1829 128.206 68.7758 127.984 69.3791 127.795C70.736 127.595 72.0578 127.204 73.3055 126.634C75.9935 125.261 76.0319 129.571 72.6335 131.232C71.7141 131.791 70.7269 132.23 69.6959 132.538C69.5231 132.538 69.4847 132.672 69.5615 132.826C70.2527 134.285 70.0799 134.17 70.5215 134.17C75.7055 134.17 75.0911 133.334 78.6815 132.576C79.7375 132.346 80.1791 133.642 79.7663 134.496C79.6703 134.688 79.8335 134.669 80.0351 134.611C80.0351 134.611 97.3151 129.494 98.0639 129.254C98.8127 129.014 98.4575 129.878 81.2159 94.1473ZM81.5999 102.605C81.4463 102.662 63.5903 108.586 61.4399 109.219C60.6431 109.133 60.7967 109.565 56.3519 100.32C55.7567 99.0913 54.9695 99.6673 76.8479 92.3905C77.7119 92.1025 77.6735 92.3905 78.8735 94.8481C82.1183 101.51 82.8287 102.182 81.5999 102.605Z" fill="#21CEDF"/>
<path d="M133.363 150.182C134.323 151.613 134.544 149.366 126.566 160.627C125.702 161.797 124.765 162.913 123.763 163.968C122.41 165.533 121.325 167.28 119.184 168.921C114.173 172.761 110.419 171.801 106.051 166.685C105.39 165.56 104.919 164.334 104.659 163.056C104.035 160.531 102.922 159.83 102.144 156.969C100.109 149.491 102.326 113.357 102.528 113.174C103.354 112.416 102.067 112.79 100.214 110.371C98.7071 108.451 99.4079 106.397 96.3743 101.462C96.3138 101.329 96.2235 101.211 96.1103 101.118C95.9971 101.025 95.8641 100.959 95.7215 100.925C95.1359 100.829 95.6159 101.587 95.8847 102.182C96.2879 103.056 95.4623 102.499 95.3087 102.489C94.9151 102.441 94.6463 102.893 95.9903 103.68C96.1535 103.776 96.5951 103.785 96.7103 103.939C96.8231 104.153 96.9039 104.383 96.9503 104.621C96.9503 104.755 96.9503 104.793 96.8255 104.803C95.7695 104.928 95.3087 105.149 94.4351 104.409C93.9359 103.987 93.0431 103.027 93.0623 102.374C93.1103 100.454 92.7839 99.4943 94.4351 98.5343C95.0783 98.1791 95.1935 97.5743 95.2319 96.8639C95.2991 95.5583 96.6143 96.2687 97.1519 94.5695C97.9199 92.1503 101.434 94.2815 100.925 92.9279C99.3695 88.8479 94.4927 86.2079 95.1647 85.0367C95.7983 84.0095 98.1119 85.9199 98.7071 86.6111C100.57 88.7135 103.987 91.5743 104.294 93.5711C104.486 94.7711 105.322 95.1839 106.157 97.9871C107.664 103.017 109.373 105.158 109.574 110.717C109.891 119.357 118.81 152.515 118.819 152.544C119.069 153.062 119.664 152.841 119.635 152.304C119.29 145.862 115.699 138.758 116.582 138.71C118.038 138.609 119.495 138.894 120.806 139.536C121.69 140.198 127.142 145.046 127.622 145.497C129.715 147.36 131.933 147.993 133.363 150.182Z" fill="#F2F2F2"/>
<path d="M122.496 68.7457C126.547 65.3185 131.338 68.1025 127.296 74.5729C126.49 75.8497 125.683 76.9537 122.16 78.4129C117.581 80.3329 117.034 68.6113 116.947 89.9329C116.947 95.9809 117.6 97.7953 126.096 101.914C126.432 102.077 123.485 104.275 123.466 104.285C118.349 107.952 121.354 106.205 115.69 108.48C114.73 108.845 110.765 110.487 110.698 109.882C109.93 103.459 108.394 101.991 107.338 98.2273C106.378 94.9057 105.302 94.0609 105.206 92.9473C105.072 91.3153 101.366 88.1473 100.915 87.5713C100.752 87.3793 100.771 87.3025 101.011 87.2161C111.83 83.6929 110.189 81.0145 109.094 81.6577C106.867 82.9537 96.8927 86.5249 92.2463 81.1969C87.1487 75.3409 87.0335 64.9441 89.1455 65.5969C90.0184 65.79 90.9274 65.7399 91.7738 65.4521C92.6201 65.1644 93.3713 64.65 93.9455 63.9649C94.5023 63.4081 93.9455 65.5297 96.6335 66.0193C97.1903 66.1249 97.4015 65.4433 97.0655 65.2801C96.2495 64.8673 95.4815 64.6753 95.0399 63.3025C94.6943 62.2369 98.0159 63.0913 97.9199 60.5953C97.9199 59.9329 97.2767 59.9137 97.1327 60.5089C96.8735 61.5361 97.1327 61.3825 95.5967 61.6705C95.4623 61.6705 95.4239 61.6705 95.4719 61.5073C96.3167 58.8481 96.0479 58.0897 96.9119 57.4465C97.2861 57.2278 97.7123 57.1136 98.1457 57.1159C98.5792 57.1182 99.004 57.2369 99.3759 57.4596C99.7478 57.6824 100.053 58.0009 100.26 58.382C100.466 58.763 100.567 59.1926 100.55 59.6257C100.675 62.7649 103.718 67.3633 107.27 67.2289C112.301 67.0273 113.75 61.8433 114.662 61.2769C115.267 60.8929 115.901 61.1329 118.454 62.6977C119.203 63.1489 117.024 67.6993 120.576 69.2545C120.95 69.4177 120.134 69.9169 121.046 70.2145C121.152 70.3297 121.67 69.4369 122.496 68.7457ZM127.094 71.7601C127.227 71.4919 127.282 71.1919 127.254 70.8939C127.225 70.596 127.113 70.312 126.931 70.0742C126.75 69.8365 126.505 69.6543 126.225 69.5485C125.945 69.4426 125.641 69.4173 125.347 69.4753C123.792 69.8113 122.093 71.7889 122.918 73.3921C123.197 73.9393 122.918 75.0721 122.342 75.2065C121.2 75.4561 121.123 74.9185 120.845 75.4369C120.566 75.9553 121.181 76.3969 121.805 76.3969C123.782 76.3969 124.445 74.1313 123.811 72.9121C123.73 72.7792 123.682 72.6284 123.672 72.4728C123.662 72.3173 123.69 72.1616 123.754 72.0193C124.157 71.0593 126.163 69.2449 126.355 71.8177C126.403 72.0865 126.893 72.1825 127.094 71.7601ZM96.7967 72.8449C96.7967 72.4993 96.5855 71.4913 95.7791 71.4721C94.8191 71.4721 94.6751 72.9025 95.3663 73.6033C95.7791 74.0353 96.5663 74.1313 96.7967 72.8449Z" fill="#F2F2F2"/>
<path d="M81.2831 144.394C84.0863 146.314 83.6543 144.48 82.3007 153.581C81.6449 157.507 80.7244 161.385 79.5455 165.187C79.2767 165.974 79.6799 162.931 79.5455 159.706C79.4111 155.328 74.8991 148.013 74.4191 148.186C73.4591 148.502 75.3791 149.626 77.7215 156.115C79.3247 160.666 78.4799 166.925 77.3567 168.595C75.8975 170.746 74.6303 171.658 70.9535 171.101C69.3042 170.852 67.7655 170.12 66.5319 168.998C65.2982 167.875 64.425 166.412 64.0223 164.794C63.5039 162.662 62.6591 160.205 63.0623 157.622C64.9823 143.798 63.8303 150.202 66.2303 153.504H66.6623C66.5279 152.458 66.4319 152.544 65.1455 148.32C64.7423 146.976 64.7327 146.784 64.3103 146.515C62.4959 145.382 62.8319 145.2 62.4767 143.28C62.2559 142.118 60.8255 142.426 61.0079 140.794C61.0578 140.333 60.9897 139.868 60.8099 139.441C60.6302 139.015 60.3449 138.641 59.9807 138.355C59.3183 137.731 59.4719 135.888 60.6239 134.688C62.6783 132.557 62.9087 131.606 64.9055 130.128C65.2223 129.888 65.2991 129.974 68.2559 129.283C68.8991 129.13 68.5055 128.976 69.8591 128.736C73.4783 128.083 74.3903 126.816 74.3519 127.622C74.269 128.272 74.0069 128.885 73.5948 129.394C73.1828 129.903 72.6371 130.286 72.0191 130.502C71.2409 130.956 70.4172 131.326 69.5615 131.606C63.8015 132.912 64.1087 136.771 65.0495 135.667C66.2783 134.227 66.0959 133.93 66.5567 134.774C66.9023 135.408 66.7295 135.12 65.5967 136.138C64.6367 137.002 61.4303 139.594 62.9855 139.363C63.2063 139.363 63.3311 139.219 65.3663 137.51C66.8159 136.282 67.4015 135.178 72.0863 135.13C74.7839 135.13 76.8863 133.891 78.7199 133.536C79.4207 133.392 79.2383 135.638 74.3231 136.963C73.2506 137.393 72.1379 137.714 71.0015 137.923C70.1028 137.968 69.2361 138.271 68.5055 138.797C67.8335 139.43 67.3343 139.757 67.6799 140.112C67.8047 140.246 67.9199 140.352 68.1023 140.16C69.2639 138.95 70.4639 139.008 72.9023 138.518C73.6319 138.374 73.4783 138.01 74.6399 137.894C75.8282 137.69 77.0044 137.421 78.1631 137.088C79.1231 137.088 78.3839 139.123 73.3631 141.062C70.9343 142.022 69.7919 142.282 68.9375 143.558C68.7071 143.904 68.5151 144.422 68.9375 144.614C69.6383 144.931 69.2159 143.462 71.7215 142.55C72.1535 142.397 72.2591 142.358 72.4127 144.278C72.7391 148.445 71.2031 150.269 71.0783 151.958C71.0783 152.189 71.3471 152.486 71.6351 152.131C72.0711 151.192 72.4588 150.23 72.7967 149.251C74.9471 142.819 69.9167 140.726 76.6367 142.79C79.6799 143.731 80.1023 143.587 81.2831 144.394Z" fill="#F2F2F2"/>
<path d="M65.7408 124.896C67.0464 124.598 65.9616 127.421 63.5712 128.736C61.6512 129.821 61.4592 129.926 61.1904 130.253C60.9216 130.579 61.1904 130.992 61.44 130.906C63.0144 130.445 65.6256 127.632 60.2688 133.786C59.0016 135.245 59.1936 135.35 59.0208 134.064C59.0323 133.575 59.0772 133.088 59.1552 132.605C59.3952 131.462 58.1376 128.765 59.4816 127.91C61.2209 126.853 63.0681 125.984 64.992 125.318C65.2233 125.147 65.4748 125.006 65.7408 124.896Z" fill="#F2F2F2"/>
<path d="M89.5872 53.7601C89.5872 53.6257 90.3552 49.9201 91.296 48.5665C92.2368 47.2129 95.4624 43.7665 95.4624 43.7665C95.4624 43.7665 97.8624 45.0145 98.0832 42.8065C98.0832 42.8065 98.9856 43.6609 100.003 42.0769C101.021 40.4929 103.68 40.6561 104.64 41.0785C105.6 41.5009 108.24 41.9809 109.699 44.4289C111.158 46.8769 116.16 55.4113 117.053 56.6401C117.946 57.8689 120.778 61.4401 118.675 62.0449L114.835 59.8561C114.835 59.8561 113.501 55.9489 110.15 55.3921C106.8 54.8353 102.816 54.4993 101.184 57.3121C101.184 57.3121 97.968 55.3921 95.7312 57.4369C95.7312 57.4369 95.2224 54.4321 92.4288 53.9617C89.6352 53.4913 89.5872 53.7601 89.5872 53.7601Z" fill="#F2F2F2"/>
<path d="M25.296 72.1729L24.8448 69.4561L27.0048 71.2801L29.7888 69.9745L28.848 73.0753L30.8256 75.9553L27.5232 75.3889L26.2176 78.3073L25.3824 74.8033L22.512 73.4401L25.296 72.1729Z" fill="#FFEAB6"/>
<path d="M163.565 71.3569C159.082 74.9281 158.602 81.7729 156.346 80.1313C153.763 78.2113 152.112 76.2048 152.035 73.3248C152.035 72.528 151.603 71.7505 150.835 72.0385C150.211 72.3106 149.57 72.5415 148.915 72.7297C146.717 73.3057 146.803 71.3088 145.786 72.24C145.375 72.5234 144.993 72.8448 144.643 73.2C144.326 73.488 144.48 73.3248 143.75 72.7776C143.021 72.2304 141.965 72.9792 142.109 73.4016C142.179 73.5043 142.281 73.5802 142.4 73.6168C142.518 73.6535 142.646 73.6487 142.762 73.6032C143.328 73.3536 143.414 73.8912 143.99 74.352C144.95 75.1296 145.709 72.5953 146.534 73.1809C147.907 74.1409 148.531 73.8145 150.624 73.1041C151.92 72.6721 149.434 75.5424 154.627 79.9488C157.507 82.416 157.997 81.6384 160.253 77.1264C161.078 75.4752 162.701 72.7872 164.17 71.8848C164.774 71.5104 165.485 71.3184 166.963 72.3648C170.429 74.8224 168.883 75.4464 168.432 76.512C168.355 76.704 168.768 77.0497 168.95 76.8001C170.093 75.2352 169.776 75.7248 170.016 74.9664C169.603 72.5856 165.715 69.6481 163.565 71.3569Z" fill="#17141F"/>
<path d="M162.125 59.1168C162.048 58.6368 161.894 58.1568 161.798 57.6864C161.787 57.5727 161.741 57.465 161.668 57.3777C161.594 57.2903 161.496 57.2272 161.386 57.1968C161.011 57.0816 160.963 57.2928 159.677 58.8192C158.534 60.1728 159.216 59.9424 156.413 59.2512C156.258 59.2787 156.111 59.3403 155.983 59.4316C155.856 59.523 155.75 59.6417 155.674 59.7792C155.482 60.0576 155.501 60.1632 156.355 61.5456C157.085 62.7264 157.315 62.4384 156.97 62.9472C155.155 65.664 154.339 66.5568 157.68 65.3376C159.6 64.6464 159.523 64.5408 159.802 64.8192C161.098 66.1152 162.883 68.304 162.989 66.4704C163.034 65.7511 162.923 65.0304 162.662 64.3584C162.528 63.6672 165.168 63.312 165.322 62.3232C165.335 62.2803 165.339 62.2352 165.333 62.1908C165.328 62.1463 165.314 62.1033 165.291 62.0646C165.269 62.0259 165.239 61.9922 165.202 61.9657C165.166 61.9392 165.125 61.9203 165.082 61.9104C161.424 60.6144 162.557 61.8816 162.125 59.1168ZM162.173 63.408C161.213 64.1184 162.115 64.7136 162.038 65.712C161.29 65.3952 160.445 63.792 159.331 63.792C157.325 64.464 157.2 64.752 156.845 64.752C156.96 64.032 158.65 62.5728 157.69 61.7952C157.315 61.5072 156.384 60.1344 156.854 60.24C158.717 60.672 158.707 60.7584 159.062 60.5088C160.934 59.2224 160.982 57.2448 161.328 59.952C161.626 62.3904 161.021 61.392 163.718 62.3712C164.16 62.5536 162.778 62.9664 162.173 63.408Z" fill="#17141F"/>
<path d="M150.144 43.5072C150.221 47.3472 152.63 49.2672 148.598 48.7488C142.416 47.9424 141.177 46.4544 141.763 50.9472C141.84 51.552 141.869 51.36 138.883 52.5696C137.385 53.184 138.067 53.9424 138.883 53.6256C141.609 52.512 142.809 52.3488 142.723 51.1584C142.531 49.056 142.262 48.6816 143.059 48.816C148.445 49.68 149.357 49.8816 150.326 49.776C154.109 49.3728 149.289 43.3536 151.872 42.096C153.686 41.1936 154.291 42.6336 162.998 46.0992C163.478 46.2912 163.958 46.4832 164.112 46.032C164.265 45.5808 163.824 45.552 163.584 45.456C154.944 41.9136 155.827 41.7408 153.984 41.136C153.578 40.9462 153.132 40.8604 152.685 40.8862C152.238 40.9121 151.804 41.0488 151.423 41.2841C151.042 41.5193 150.726 41.8457 150.502 42.2339C150.279 42.622 150.156 43.0596 150.144 43.5072Z" fill="#17141F"/>
<path d="M153.869 31.7473C153.149 32.9281 151.478 35.5009 153.024 35.1169C153.6 34.9825 154.704 34.7713 154.944 34.6753C156.413 34.1761 156.461 33.9745 156.662 34.1857C158.582 36.1057 159.955 38.2081 159.859 34.6945C159.802 33.0433 159.437 32.7745 159.907 32.5921C160.531 32.3233 161.77 31.6321 162.115 31.5457C163.296 31.1905 163.354 30.4225 162.845 30.1921C162.336 29.9617 160.925 29.6929 160.051 29.3185C158.659 28.6945 159.254 29.5489 158.362 26.0161C158.341 25.911 158.287 25.8152 158.208 25.7424C158.129 25.6696 158.03 25.6236 157.923 25.6108C157.817 25.598 157.709 25.6192 157.615 25.6713C157.522 25.7234 157.447 25.8037 157.402 25.9009C157.286 26.0545 156.883 26.6305 155.654 28.4353C155.366 28.8673 152.611 27.4177 152.16 27.9553C151.027 29.2705 154.243 31.1329 153.869 31.7473ZM155.021 29.3089C155.981 29.5873 155.808 29.4529 157.555 27.1009C158.112 26.3425 157.757 29.7697 159.053 29.8849C159.494 29.8849 160.128 30.4225 161.155 30.6529C161.238 30.6828 161.315 30.7249 161.386 30.7777C161.338 30.8449 161.299 30.9313 161.232 30.9601C158.813 32.2081 158.65 32.0545 158.794 32.8801C159.158 35.1553 159.072 34.8001 159.014 35.1937C156.451 32.8705 157.469 33.1681 157.094 33.1009C156.384 32.9953 155.059 33.7921 153.782 34.0609C153.341 34.0609 153.514 33.9649 154.618 32.1409C155.808 30.1729 149.875 27.8401 155.021 29.3089Z" fill="#17141F"/>
<path d="M131.174 33.9457C131.131 34.3205 131.167 34.7002 131.28 35.0603C131.392 35.4205 131.579 35.7531 131.827 36.037C132.076 36.3208 132.381 36.5495 132.723 36.7085C133.066 36.8675 133.437 36.9532 133.814 36.9601C135.216 37.0849 135.782 35.8849 136.31 36.0001C137.491 36.2305 138.432 34.9249 138.47 33.9937C138.47 33.5041 138.835 33.1777 139.027 32.7073C139.219 32.2369 138.97 31.9393 139.219 31.8625C139.586 31.6098 139.883 31.267 140.079 30.8669C140.276 30.4668 140.367 30.0229 140.342 29.5777C140.342 29.4529 140.669 29.0113 140.342 28.6177C140.275 28.5313 140.602 28.0129 140.678 27.9361C140.755 27.8593 149.894 28.5889 151.498 20.5345C153.84 8.76489 134.938 4.00329 131.414 15.3121C129.494 21.3985 134.486 24.6241 134.189 25.2481C133.411 26.8513 132.912 26.2081 132.624 26.9089C131.856 28.6849 132.624 28.4641 132.211 28.6849C130.829 29.3953 131.597 30.2689 131.117 30.6049C130.742 30.8801 130.488 31.2892 130.408 31.747C130.327 32.2048 130.426 32.676 130.685 33.0625C131.059 33.5041 131.251 33.6001 131.174 33.9457ZM133.882 35.9713C132.768 35.7025 132.634 35.6833 131.962 34.3201C131.875 34.1473 132.086 34.1761 132.269 34.2529C134.918 35.3473 135.658 35.5201 133.882 35.9713ZM133.44 22.7233C128.822 15.3985 135.36 9.51369 140.419 9.79209C152.314 9.72489 154.877 25.3729 142.512 26.7841C140.899 26.9761 140.592 26.5153 140.093 27.1585C139.19 28.4353 139.776 29.0113 139.037 28.8193C137.528 28.4337 136.089 27.8116 134.774 26.9761C133.555 26.2369 135.734 26.0161 135.101 24.6433C134.467 23.2705 134.477 24.3169 133.44 22.7233ZM133.488 27.1009C138.576 30.9409 140.592 28.9633 139.056 30.7489C138.768 31.0849 137.654 30.5185 137.232 30.3649C135.216 29.6065 131.789 28.5121 133.526 27.1009H133.488ZM132.317 29.5777C132.47 29.4625 132.394 29.1361 132.614 29.1553C132.998 29.1553 132.49 29.5585 135.034 30.5761C137.578 31.5937 137.798 31.7089 138.298 31.7569C138.797 31.8049 138.24 32.8609 137.28 32.8417C135.725 32.3041 131.078 30.5953 132.355 29.5777H132.317ZM131.357 31.4977C131.779 30.8449 131.434 31.5937 133.622 32.5345C135.994 33.5617 136.848 33.9457 137.462 33.8689C137.626 33.8689 137.616 33.9841 137.549 34.0705C137.155 34.5985 136.704 35.3761 135.965 34.9057C134.093 33.6001 130.387 33.0625 131.414 31.4593L131.357 31.4977Z" fill="#17141F"/>
<path d="M150.153 91.5457C149.405 91.0657 149.693 91.0081 149.856 90.2977C150.518 87.4177 150.489 87.6193 150.451 87.4177C150.446 87.3364 150.419 87.2581 150.373 87.1912C150.326 87.1244 150.262 87.0716 150.188 87.0389C150.114 87.0061 150.031 86.9945 149.951 87.0055C149.87 87.0164 149.794 87.0494 149.731 87.1009C148.771 87.8593 147.677 88.3105 146.697 89.0209C146.246 89.3281 144.729 87.7921 144.384 87.9265C143.875 88.1377 143.501 88.3873 143.664 89.0113C144.345 91.4785 144.134 91.2193 143.779 91.4497C142.733 92.1217 141.859 92.4097 141.926 93.2641C141.926 93.9553 144.019 93.9073 144.806 93.9169C145.593 93.9265 145.43 94.2625 145.699 94.7041C146.899 96.6817 147.619 97.8241 148.214 95.5777C148.733 93.7153 148.089 93.9169 151.277 93.8113C152.64 93.7057 151.613 92.4769 150.153 91.5457ZM149.472 92.9377C148.349 93.0817 147.878 93.1105 147.753 93.7921C147.651 94.3471 147.493 94.8906 147.283 95.4145C147.234 95.378 147.189 95.3361 147.149 95.2897C145.229 92.4673 146.717 93.1969 143.193 92.9089C142.493 92.9089 144.422 92.2561 144.989 90.9889C145.2 90.5185 144.211 88.7617 144.768 89.0689C146.457 89.9617 145.91 89.6353 146.121 89.7601C146.755 90.1537 148.637 88.6081 149.357 88.3969C149.616 89.9809 147.792 90.9409 149.51 92.1505C150.72 92.9857 150.557 92.8033 149.472 92.9377Z" fill="#17141F"/>
<path d="M139.45 104.534C136.723 103.094 134.525 104.17 131.165 102.269C130.2 101.593 129.026 101.28 127.853 101.386C127.037 101.597 119.952 98.5056 118.426 95.1456C118.103 94.2693 117.934 93.3436 117.926 92.4096C117.859 91.68 121.45 94.8096 124.925 93.1008C125.015 93.0693 125.094 93.0126 125.153 92.9376C125.211 92.8625 125.248 92.7722 125.257 92.6773C125.266 92.5823 125.247 92.4868 125.204 92.4019C125.16 92.3171 125.094 92.2464 125.011 92.1984C123.752 91.6702 122.691 90.7602 121.978 89.5968C121.862 89.4048 121.728 89.0208 122.17 89.3184C126.077 91.9776 131.203 89.136 129.638 88.3584C128.247 88.0057 127.012 87.2023 126.125 86.0736C125.933 85.8336 126.125 85.872 126.24 85.9392C129.12 87.2256 133.171 87.0432 135.456 84.8448C136.646 83.6928 132.826 83.2032 131.99 78.7104C131.155 74.2176 133.91 71.2704 134.39 63.6C134.64 59.6064 131.664 52.2048 129.782 49.44C124.666 41.9328 117.302 38.2656 108.115 35.6544C105.94 35.1538 103.673 35.2166 101.53 35.8368C101.146 35.9904 101.232 36.624 101.693 36.5568C105.008 35.8247 108.475 36.2517 111.514 37.7664C115.258 39.5328 122.659 41.2032 128.275 49.104C140.602 66.384 125.395 75.024 133.008 82.9152C134.611 84.576 134.842 84.3072 134.083 84.7584C132.723 85.519 131.177 85.8827 129.621 85.808C128.065 85.7333 126.561 85.2233 125.28 84.336C124.685 83.952 124.07 84.336 124.387 85.056C125.722 88.2816 128.966 88.704 128.131 88.992C123.715 90.48 121.93 87.7728 121.306 87.4272C119.981 86.7168 119.741 89.5968 123.389 92.3712C124.147 92.9472 117.773 92.4576 117.83 90.3744C118.358 72.8256 116.669 80.5248 121.766 79.8144C126 79.2096 130.886 73.2096 129.715 68.976C128.928 66.1632 126.326 66.4896 125.674 66.0192C119.347 61.4784 115.987 60.0768 114.154 57.1968C111.984 53.7984 103.891 52.6272 101.04 56.6304C100.934 56.784 100.848 56.8224 100.704 56.6304C100.44 56.3141 100.115 56.0552 99.7469 55.8696C99.3793 55.6841 98.9775 55.5758 98.5664 55.5515C98.1553 55.5273 97.7436 55.5875 97.3567 55.7284C96.9698 55.8694 96.6159 56.0882 96.3167 56.3712C96.1919 56.5056 96.1343 56.5056 96.0863 56.3136C95.5871 54.2592 92.7935 53.2896 90.4991 53.1648C90.1439 53.1648 90.0767 53.2896 90.9983 50.8992C91.1711 50.4576 92.1695 50.3616 93.6479 51.4176C94.9823 52.2432 94.0511 49.152 91.9295 49.2C90.9695 49.2 94.7327 45.0816 95.3183 44.4C95.6255 44.0544 95.7119 44.6496 96.4703 44.7168C96.7871 44.7168 96.9887 44.2176 96.6047 43.92C91.6799 40.08 96.9023 32.1888 101.549 34.7328C102.509 35.28 102.979 34.2624 102.048 33.7728C98.7647 32.1696 95.0495 34.3584 94.0127 37.9488C93.8783 38.3904 93.8495 37.8816 91.6127 38.4C90.6109 38.6366 89.6896 39.1343 88.9426 39.8425C88.1956 40.5507 87.6495 41.4442 87.3599 42.432C87.23 42.8852 86.9775 43.2938 86.6303 43.6128C84.4223 45.9936 85.4783 49.0272 87.9935 49.7856C88.1759 49.8432 88.8959 49.9296 88.9535 49.5936C89.1071 49.0368 88.6559 49.0272 88.3007 48.9216C84.9407 47.9136 86.9087 43.392 87.2831 44.9952C87.6575 46.5984 89.8271 48.6144 90.2975 47.7888C90.7679 46.9632 86.8799 45.9648 88.3199 42.3648C89.4527 39.4848 93.7439 38.5248 93.7343 39.648C93.6767 43.2 95.2511 43.488 94.8671 43.8912C92.9471 45.8976 91.9871 46.608 90.8063 49.104C90.7211 49.3194 90.5608 49.4967 90.3551 49.6032C88.9055 50.2752 88.3679 52.4832 88.9247 52.1568C90.1151 51.36 89.7311 51.408 89.4335 52.896C89.2895 53.5968 88.3295 52.9536 85.9103 54.2592C81.5999 56.64 83.6927 62.2944 87.3599 64.8C88.7519 65.76 84.6143 67.0944 88.7231 76.9536C88.7424 76.9854 88.7537 77.0213 88.756 77.0584C88.7583 77.0955 88.7517 77.1326 88.7366 77.1665C88.7215 77.2005 88.6984 77.2303 88.6693 77.2534C88.6403 77.2765 88.606 77.2922 88.5695 77.2992C87.0596 77.9789 85.4253 78.3384 83.7695 78.3552C83.1935 78.2976 83.2127 78.9312 83.3855 79.392C84.8159 83.232 88.7807 83.5872 88.0319 84.0288C85.0079 85.8336 85.0751 85.4976 84.2687 85.6896C84.12 85.7042 83.9831 85.777 83.8878 85.892C83.7925 86.0071 83.7466 86.1552 83.7599 86.304C83.6927 87.0816 84.2975 87.5232 85.1423 88.128C88.7519 90.7008 92.3039 89.088 92.4863 89.2608C92.2021 90.2286 91.7434 91.1364 91.1327 91.9392C89.8079 93.6192 93.5807 93.8592 96.7199 91.8816C96.7767 91.8674 96.836 91.8674 96.8927 91.8816C96.785 92.5791 96.6311 93.2686 96.4319 93.9456C95.9711 95.472 94.8095 94.9056 94.3679 96.4896C93.9743 97.9584 86.5247 100.013 85.5551 100.627C85.2383 100.819 85.4687 100.963 82.5695 95.04C78.4607 86.6784 78.7295 86.688 77.6735 87.0432C75.2159 87.8304 76.0703 88.2432 74.5343 85.1232C73.7471 83.52 55.7855 88.2048 50.2751 94.7616C49.1135 96.2016 49.8143 96.5568 50.2079 96.2016C50.4287 96.0096 51.9647 92.976 60.6047 89.2416C64.7034 87.4652 69.0299 86.2697 73.4591 85.6896C73.9583 85.632 73.7567 85.488 74.7455 87.6768C74.9951 88.2336 50.9951 95.6352 50.3999 96.3936C49.8047 97.152 48.4799 96.912 48.8831 96.6048C48.9723 96.5442 49.0349 96.4517 49.0581 96.3464C49.0813 96.2411 49.0634 96.1309 49.0079 96.0384C47.0879 91.5936 44.8991 91.2384 45.1679 90.2784C45.1679 90.096 44.3231 88.1088 44.4767 87.8208C44.6303 87.5328 49.1615 91.5648 49.0079 94.224C49.0079 94.896 50.0831 95.184 49.9103 93.9552C49.4207 90.3552 44.6303 85.4592 43.3631 87.0144C43.1423 87.2736 44.0735 89.1648 44.0927 89.7312C43.4783 89.5488 40.1087 86.8512 39.0431 88.1856C38.8031 88.4736 38.9183 88.512 40.4159 91.2768C40.7903 91.9776 39.7151 91.1904 38.6495 90.5568C35.4527 88.6368 36.7295 90.4896 38.4287 94.0896C57.3503 133.056 58.8575 135.37 58.6655 136.445C58.568 137.019 58.6202 137.609 58.8169 138.157C59.0137 138.705 59.3484 139.193 59.7887 139.574C59.9376 139.728 60.0448 139.917 60.1003 140.124C60.1557 140.33 60.1575 140.548 60.1055 140.755C59.9999 143.126 61.6991 142.742 61.6799 144.067C61.6901 144.967 62.0319 145.832 62.6399 146.496C64.0991 147.562 63.4751 145.478 62.1791 157.382C61.8143 160.714 62.8511 163.43 63.4175 165.494C64.6175 169.795 69.1775 172.157 72.3455 172.214C72.6719 172.214 72.8063 172.099 72.3455 173.53C70.8767 178.128 72.7391 179.078 70.5311 181.901C70.1406 182.468 69.9147 183.133 69.8783 183.821C69.8906 183.913 69.9342 183.997 70.0016 184.061C70.069 184.124 70.1562 184.163 70.2485 184.169C70.3409 184.176 70.4327 184.151 70.5087 184.098C70.5846 184.045 70.64 183.967 70.6655 183.878C71.1263 182.16 72.5855 181.411 72.6431 179.011C72.6431 178.589 72.7007 175.939 72.7967 175.536C73.6511 171.84 73.4687 172.224 73.9583 172.147C77.0783 171.648 77.7407 169.901 79.4975 167.52C80.7263 165.85 83.3375 154.714 84.1535 146.87C84.1535 146.563 84.1535 146.246 84.4319 146.035C84.7103 145.824 86.0927 137.251 86.0639 136.435C86.0639 136.118 85.5071 135.994 85.3919 136.282C85.0751 137.04 84.5951 141.744 83.9903 144.864C83.9231 145.248 83.7695 145.008 82.3295 143.99C80.4095 142.627 80.1311 142.954 77.7407 142.272C73.9007 141.149 74.8607 141.715 77.0015 140.352C79.8815 138.49 79.6895 136.752 79.3631 136.339C79.0367 135.926 77.9999 136.166 79.3631 135.773C92.0639 132.096 96.9311 130.714 98.6687 130.013C99.8687 129.552 99.6287 129.418 99.3407 129.11C99.3407 129.11 97.5167 125.405 85.9007 101.76C85.7279 101.395 85.6223 101.53 87.9263 100.8C88.0799 100.8 88.1279 100.8 88.1567 100.963C88.7292 103.474 90.0718 105.743 91.9967 107.453C97.1519 111.782 99.0431 110.275 99.4367 110.938C102.71 116.515 101.04 103.44 100.397 143.712C100.397 159.024 101.75 158.112 103.574 162.595C103.718 162.931 104.534 166.435 105.101 167.059C110.717 173.712 115.21 173.597 120.144 169.574C124.282 166.205 131.222 155.309 131.76 155.722C132.298 156.134 133.181 156.173 134.026 156.749C135.168 157.526 136.954 158.285 138.269 157.901C139.354 157.584 139.066 158.333 144.701 141.773C144.998 140.89 144.442 148.973 142.56 156.336C139.968 166.454 135.84 172.234 136.8 176.093C137.184 177.59 136.522 178.128 136.8 180.586C137.76 187.69 137.29 187.238 138.058 187.306C138.826 187.373 137.971 181.786 137.904 181.459C137.318 178.474 138.077 177.619 137.683 175.968C136.666 171.754 142.262 164.976 144.749 150.173C145.843 143.693 145.008 141.168 147.226 134.899C149.99 127.142 151.776 121.68 150.48 113.501C149.52 107.52 147.667 108.874 139.45 104.534ZM49.5359 97.8144C52.5311 97.8144 47.8751 91.1904 64.2911 124.147C64.5791 124.733 63.5231 125.059 62.9087 125.174C62.5439 124.934 63.3503 126.269 54.5567 108.557C48.9599 97.3536 48.9599 97.8048 49.5359 97.8048V97.8144ZM40.0511 88.896C41.3279 88.7424 46.7711 92.4576 48.0863 96.1632C45.8497 95.0508 43.7025 93.767 41.6639 92.3232C41.4815 91.5456 40.2143 89.4528 40.0511 88.8864V88.896ZM58.2239 132.71C57.9071 132.25 38.0639 91.6032 37.9295 91.2672C38.0831 91.2096 37.5647 90.9504 45.9743 95.9712C48.6719 97.584 47.1071 95.5392 51.6671 104.794C62.3615 126.49 62.1599 125.491 61.6991 125.654C55.9487 127.622 58.8095 131.395 58.2239 132.701V132.71ZM59.0207 134.093C59.0322 133.604 59.0771 133.116 59.1551 132.634C59.3951 131.491 58.1375 128.794 59.4815 127.939C61.2208 126.881 63.0681 126.013 64.9919 125.347C65.2222 125.17 65.4738 125.021 65.7407 124.906C67.0463 124.618 65.9615 127.43 63.5711 128.746C61.6511 129.83 61.4591 129.936 61.1903 130.262C60.9215 130.589 61.1903 131.002 61.4399 130.915C63.0143 130.454 65.6255 127.642 60.2687 133.795C59.0015 135.264 59.1935 135.36 59.0207 134.083V134.093ZM66.3743 128.333C66.5375 128.736 66.4799 128.669 64.9823 128.966C64.9823 128.966 64.9823 128.966 64.9823 128.89C65.8175 128.381 65.9423 127.805 66.1055 127.843C66.2687 127.882 66.2399 128.035 66.3743 128.362V128.333ZM74.2847 136.915C73.2122 137.345 72.0995 137.666 70.9631 137.875C70.0644 137.92 69.1977 138.223 68.4671 138.749C67.7951 139.382 67.2959 139.709 67.6415 140.064C67.7663 140.198 67.8815 140.304 68.0639 140.112C69.2255 138.902 70.4255 138.96 72.8639 138.47C73.5935 138.326 73.4399 137.962 74.6015 137.846C75.7898 137.642 76.966 137.373 78.1247 137.04C79.0847 137.04 78.3455 139.075 73.3247 141.014C70.8863 141.974 69.7535 142.234 68.8991 143.51C68.6687 143.856 68.4767 144.374 68.8991 144.566C69.5999 144.883 69.1775 143.414 71.6831 142.502C72.1151 142.349 72.2207 142.31 72.3743 144.23C72.7007 148.397 71.1647 150.221 71.0399 151.91C71.0399 152.141 71.3087 152.438 71.5967 152.083C71.8847 151.728 72.6623 149.453 72.7583 149.203C74.9087 142.771 69.8783 140.678 76.5983 142.742C79.6799 143.702 80.0639 143.539 81.2447 144.346C84.0479 146.266 83.6159 144.432 82.2623 153.533C81.6066 157.459 80.6861 161.337 79.5071 165.139C79.2383 165.926 79.6415 162.883 79.5071 159.658C79.3727 155.28 74.8607 147.965 74.3807 148.138C73.4207 148.454 75.3407 149.578 77.6831 156.067C79.2863 160.618 78.4415 166.877 77.3183 168.547C75.8591 170.698 74.5919 171.61 70.9151 171.053C69.2658 170.804 67.7271 170.072 66.4935 168.95C65.2599 167.827 64.3866 166.364 63.9839 164.746C63.4655 162.614 62.6207 160.157 63.0239 157.574C64.9439 143.75 63.7919 150.154 66.1919 153.456H66.6239C66.4895 152.41 66.3935 152.496 65.1071 148.272C64.7039 146.928 64.6943 146.736 64.2719 146.467C62.4575 145.334 62.7935 145.152 62.4383 143.232C62.2175 142.07 60.7871 142.378 60.9695 140.746C61.0194 140.285 60.9513 139.82 60.7716 139.393C60.5919 138.967 60.3065 138.593 59.9423 138.307C59.2799 137.683 59.4335 135.84 60.5855 134.64C62.6399 132.509 62.8703 131.558 64.8671 130.08C65.1839 129.84 65.2607 129.926 68.2175 129.235C68.8607 129.082 68.4671 128.928 69.8207 128.688C73.4399 128.035 74.3519 126.768 74.3135 127.574C74.2307 128.224 73.9685 128.837 73.5564 129.346C73.1444 129.855 72.5988 130.238 71.9807 130.454C71.2025 130.908 70.3788 131.278 69.5231 131.558C63.7631 132.864 64.0703 136.723 65.0111 135.619C66.2399 134.179 66.0575 133.882 66.5183 134.726C66.8639 135.36 66.6911 135.072 65.5583 136.09C64.5983 136.954 61.3919 139.546 62.9471 139.315C63.1679 139.315 63.2927 139.171 65.3279 137.462C66.7775 136.234 67.3631 135.13 72.0479 135.082C74.7455 135.082 76.8479 133.843 78.6815 133.488C79.3823 133.373 79.1999 135.619 74.2847 136.944V136.915ZM67.6607 134.784C67.5359 134.669 67.5935 134.851 67.0463 133.738C66.9215 133.469 67.1327 133.392 68.4767 132.979C68.6495 132.922 68.8031 133.238 69.1967 134.112C69.2831 134.342 69.1199 134.4 67.6607 134.813V134.784ZM98.0159 129.254C97.2479 129.494 80.0159 134.602 79.9871 134.611C79.7855 134.669 79.6223 134.688 79.7183 134.496C80.1311 133.613 79.7183 132.317 78.6335 132.576C75.0431 133.334 75.6575 134.16 70.4735 134.17C70.0799 134.17 70.2527 134.285 69.5135 132.826C69.4367 132.672 69.5135 132.576 69.6479 132.538C70.6789 132.23 71.6662 131.791 72.5855 131.232C75.9839 129.571 75.9455 125.261 73.2575 126.634C72.0098 127.203 70.688 127.594 69.3311 127.795C68.7278 127.984 68.135 128.205 67.5551 128.458C67.2863 128.554 66.8639 127.498 66.7391 127.181C66.6143 126.864 67.9871 123.734 66.0191 123.782C64.3391 124.234 66.5471 125.856 51.8591 97.1424C51.4751 96.3936 51.0815 96.7968 57.3503 94.7232C59.8943 93.888 75.0047 88.8864 77.8463 87.8592C78.1151 87.7632 77.8463 87.36 81.1679 94.1472C98.4575 129.878 98.7263 129.062 98.0159 129.283V129.254ZM119.357 63.6576C119.357 63.2736 119.165 63.2736 123.869 66.3264C124.483 66.72 123.053 66.5568 121.594 68.2464C121.315 68.5728 121.306 68.5536 120.902 68.3616C119.155 67.584 119.107 65.6832 119.357 63.6864V63.6576ZM102.413 56.64C104.333 55.0656 110.573 55.104 112.973 57.8208C115.066 60.2016 109.882 68.9088 104.765 65.328C102.307 63.6096 100.022 58.56 102.413 56.64ZM90.0095 60.9984C90.0095 60.5184 89.4719 54.5472 90.2495 54.5856C91.7096 54.5337 93.1524 54.9144 94.3967 55.68C96.4607 57.0336 94.1183 66.384 89.0879 64.5312C88.5503 64.32 89.9711 63.0624 90.0095 60.9984ZM87.3599 55.056C87.8591 54.9024 88.3199 54.7872 88.8767 54.6528C89.0495 54.6528 89.1359 54.6528 89.1167 54.8448C88.6175 59.1744 90.0191 60.4032 88.3583 63.7248C88.1663 64.128 88.1279 64.1472 87.8015 63.888C83.7791 60.6048 82.6559 56.5248 87.3599 55.056ZM89.1359 65.616C90.0088 65.8091 90.9178 65.759 91.7642 65.4712C92.6105 65.1835 93.3617 64.6691 93.9359 63.984C94.4831 63.4272 93.9359 65.5488 96.6239 66.0384C97.1807 66.144 97.3919 65.4624 97.0559 65.2992C96.2399 64.8864 95.4719 64.6944 95.0303 63.3216C94.6847 62.256 98.0063 63.1104 97.9103 60.6144C97.9103 59.952 97.2671 59.9328 97.1231 60.528C96.8639 61.5552 97.1231 61.4016 95.5871 61.6896C95.4527 61.6896 95.4143 61.6896 95.4623 61.5264C96.3071 58.8672 96.0383 58.1088 96.9023 57.4656C97.2766 57.2469 97.7027 57.1327 98.1361 57.135C98.5696 57.1373 98.9944 57.256 99.3663 57.4787C99.7382 57.7014 100.043 58.02 100.25 58.401C100.457 58.7821 100.557 59.2117 100.541 59.6448C100.666 62.784 103.709 67.3824 107.261 67.248C112.291 67.0464 113.741 61.8624 114.653 61.296C115.258 60.912 115.891 61.152 118.445 62.7168C119.194 63.168 117.014 67.7184 120.566 69.2736C120.941 69.4368 120.125 69.936 121.037 70.2336C121.181 70.2336 121.699 69.3792 122.525 68.688C126.576 65.2608 131.366 68.0448 127.325 74.5152C126.518 75.792 125.712 76.896 122.189 78.3552C117.61 80.2752 117.062 68.5536 116.976 89.8752C116.976 95.9232 117.629 97.7376 126.125 101.856C126.461 102.019 123.514 104.218 123.494 104.227C118.378 107.894 121.382 106.147 115.718 108.422C114.758 108.787 110.794 110.429 110.726 109.824C109.958 103.402 108.422 101.933 107.366 98.1696C106.406 94.848 105.331 94.0032 105.235 92.8896C105.101 91.2576 101.395 88.0896 100.944 87.5136C100.781 87.3216 100.8 87.2448 101.04 87.1584C111.859 83.6352 110.218 80.9568 109.123 81.6C106.896 82.896 96.9215 86.4672 92.2751 81.1392C87.1199 75.3984 87.0047 65.0016 89.1167 65.6544L89.1359 65.616ZM92.1599 92.16C92.8358 90.9642 93.3155 89.6677 93.5807 88.32C93.6053 88.2223 93.5984 88.1193 93.5612 88.0257C93.5239 87.9321 93.4582 87.8526 93.3732 87.7984C93.2882 87.7442 93.1884 87.7182 93.0878 87.7239C92.9872 87.7297 92.891 87.7669 92.8127 87.8304C89.4815 90.0768 83.6063 86.5536 84.9983 86.448C85.8335 86.3808 91.4399 83.7984 88.7327 82.896C85.5359 81.8304 84.0863 79.3536 84.4703 79.2384C85.9699 79.1391 87.4411 78.7819 88.8191 78.1824C90.0863 77.5776 88.8191 80.5824 94.7231 84.2208C94.4546 84.5202 94.3061 84.9082 94.3061 85.3104C94.3061 85.7126 94.4546 86.1006 94.7231 86.4C96.3743 88.416 97.6031 89.28 97.5167 89.472C97.3727 89.7792 97.5167 90.2016 97.1423 90.432C95.7119 91.4016 93.8111 92.496 92.1599 92.16ZM98.4767 109.603C94.1279 108.922 89.8847 104.621 89.0111 101.011C88.8479 100.33 88.7327 100.397 89.4623 100.147C91.6031 99.3888 92.7071 98.5728 92.4383 99.0528C91.9007 100.013 92.2847 101.251 92.2175 101.693C91.9679 103.354 93.1199 104.755 94.7807 105.638C95.0015 105.754 94.9247 105.734 96.3935 105.83C97.3535 105.6 97.4783 105.504 97.5935 105.83C97.804 106.31 97.9679 106.808 98.0831 107.318C98.4671 109.44 98.9663 109.718 98.4671 109.642L98.4767 109.603ZM126.576 160.589C125.711 161.759 124.775 162.875 123.773 163.93C122.419 165.494 121.334 167.242 119.194 168.883C114.182 172.723 110.429 171.763 106.061 166.646C105.399 165.522 104.929 164.296 104.669 163.018C104.045 160.493 102.931 159.792 102.154 156.931C100.118 149.453 102.336 113.318 102.538 113.136C103.363 112.378 102.077 112.752 100.224 110.333C98.7167 108.413 99.4175 106.358 96.3839 101.424C96.3234 101.291 96.2331 101.173 96.1199 101.079C96.0068 100.986 95.8738 100.92 95.7311 100.886C95.1455 100.79 95.6255 101.549 95.8943 102.144C96.2975 103.018 95.4719 102.461 95.3183 102.451C94.9247 102.403 94.6559 102.854 95.9999 103.642C96.1631 103.738 96.6047 103.747 96.7199 103.901C96.8327 104.115 96.9136 104.345 96.9599 104.582C96.9599 104.717 96.9599 104.755 96.8351 104.765C95.7791 104.89 95.3183 105.11 94.4447 104.371C93.9455 103.949 93.0527 102.989 93.0719 102.336C93.1199 100.416 92.7935 99.456 94.4447 98.496C95.0879 98.1408 95.2031 97.536 95.2415 96.8256C95.3087 95.52 96.6239 96.2304 97.1615 94.5312C97.9295 92.112 101.443 94.2432 100.934 92.8896C99.3791 88.8096 94.5023 86.1696 95.1743 84.9984C95.8079 83.9712 98.1119 85.8816 98.7167 86.5728C100.579 88.6752 103.997 91.536 104.304 93.5328C104.496 94.7232 105.331 95.1456 106.166 97.9488C107.674 102.979 109.382 105.12 109.584 110.678C109.901 119.318 118.819 152.477 118.829 152.506C119.078 153.024 119.674 152.813 119.645 152.266C119.299 145.824 115.709 138.72 116.592 138.672C118.048 138.571 119.505 138.856 120.816 139.498C121.699 140.16 127.152 145.008 127.632 145.459C129.619 147.283 131.837 147.917 133.267 150.106C134.285 151.613 134.554 149.366 126.566 160.627L126.576 160.589ZM97.7759 92.2944C98.2175 90.0288 98.1695 90.1152 98.4383 90.3744C98.9197 90.9027 99.3121 91.5058 99.5999 92.16C99.8015 92.5344 99.1871 92.4 99.1775 92.3616C97.8047 92.6112 97.6415 92.7264 97.7183 92.3328L97.7759 92.2944ZM138.979 155.29C138.939 155.37 138.884 155.442 138.816 155.501C138.763 155.448 138.715 155.39 138.672 155.328C136.061 151.488 134.746 150.528 134.131 149.434C133.354 148.061 131.107 146.64 129.754 145.814C128.861 145.267 127.123 143.482 125.75 142.397C122.65 139.949 122.573 138.403 118.147 137.798C117.475 137.702 116.448 138 116.285 137.866C116.122 137.731 116.285 137.501 117.062 136.003C117.714 134.651 118.495 133.365 119.395 132.163C123.37 126.557 122.563 126.845 123.917 124.531C126.298 120.422 126.922 120.922 130.733 116.851C135.955 111.264 136.214 111.139 136.56 110.256C136.714 109.843 136.349 109.651 136.157 109.853C124.214 122.467 125.357 119.933 122.909 124.502C117.485 134.64 120.653 127.584 116.026 135.926C115.536 136.8 110.266 112.714 110.774 111.101C110.918 110.64 111.456 111.379 115.574 109.632C121.805 106.973 118.522 109.133 123.734 105.293C126.374 103.373 127.574 101.232 130.253 102.835C133.709 104.909 134.957 104.054 138.202 105.014C139.92 105.523 139.747 106.09 146.957 108.998C149.069 109.853 149.366 111.715 149.616 113.549C150.854 123.216 149.99 124.387 138.922 155.328L138.979 155.29Z" fill="#17141F"/>
<path d="M136.541 18.5568C136.713 18.5568 136.838 18.5568 136.781 18.8544C136.416 20.4192 138.537 21.7344 138.115 22.4928C137.541 23.5903 137.136 24.7684 136.915 25.9872C136.867 26.2752 137.126 26.1216 137.232 26.208C137.635 26.5536 137.827 24.7488 138.864 22.8C139.565 21.504 137.529 20.208 137.577 19.0944C137.635 17.664 138.192 18.48 139.497 18.8928C140.227 19.1232 140.784 18.8928 140.985 19.3728C141.116 19.6292 141.334 19.8304 141.6 19.9396C141.866 20.0489 142.162 20.0589 142.435 19.968C143.318 19.7376 143.088 20.4192 144.125 20.64C145.161 20.8608 145.152 20.8128 145.152 21.1968C145.152 21.3312 145.152 21.4752 144.989 21.5136C144.495 21.6819 144.024 21.9109 143.587 22.1952C143.04 22.4544 143.28 22.0128 142.368 22.608C140.995 23.5008 141.225 22.9344 140.649 23.3856C139.689 24.1632 137.587 26.3808 138.259 26.9088C138.931 27.4368 139.008 26.0544 140.371 24.8064C141.734 23.5584 141.523 24.1632 141.984 23.8464C142.944 23.2512 143.078 23.1648 143.222 23.1552C144.048 23.088 144.681 22.3968 145.305 22.3392C146.15 22.2624 145.929 21.5232 146.112 21.5808C146.294 21.6384 146.294 21.8208 146.361 21.984C146.966 23.4912 148.848 19.9392 147.398 19.4688C145.949 18.9984 145.565 20.016 145.334 19.9584C143.107 19.4592 144.489 19.7472 143.203 19.0848C142.608 18.7776 142.137 19.4976 141.657 18.816C140.899 17.7216 141.446 18.816 137.885 17.3952C137.635 17.2992 137.501 16.9536 137.309 16.7232C137.117 16.4928 136.819 16.4928 136.464 16.3968C135.456 16.1568 134.861 18.24 136.541 18.5568ZM146.985 20.2752C147.283 20.3616 147.062 21.0624 146.793 20.9184C145.776 20.4 146.63 20.16 146.985 20.2752ZM136.425 17.1456C136.541 17.1456 136.742 17.4816 136.848 17.6448C136.32 18.0768 136.07 17.28 136.416 17.1456H136.425Z" fill="#17141F"/>
<path d="M143.242 121.978C140.054 123.61 135.802 126.576 125.962 127.181C125.587 127.181 125.213 127.354 125.261 127.738C125.309 128.122 133.469 128.554 143.501 122.765C144.826 121.987 144.115 121.536 143.242 121.978Z" fill="#17141F"/>
<path d="M127.459 124.598C132.595 122.995 139.2 117.878 138.777 117.322C137.942 116.256 135.83 120.538 127.181 123.917C126.873 124.032 127.008 124.502 127.459 124.598Z" fill="#17141F"/>
<path d="M123.84 59.2608C124.003 59.4336 127.795 62.8704 128.208 61.8048C128.361 61.4016 128.112 61.2864 126.787 60.3648C119.885 55.68 116.957 46.1952 113.673 44.16C113.453 44.0256 113.27 44.5536 113.357 44.7168C114.111 45.5482 114.795 46.4409 115.401 47.3856C119.424 53.8176 118.425 53.3952 123.84 59.2608Z" fill="#17141F"/>
<path d="M124.329 107.952C122.15 109.248 122.102 109.872 120.969 110.361C120.221 110.688 114.249 113.021 114.758 113.894C115.037 114.345 114.989 113.981 121.478 111.091C122.401 110.517 123.28 109.875 124.109 109.171C127.392 106.8 127.853 106.838 127.689 106.291C127.401 105.417 125.616 107.193 124.329 107.952Z" fill="#17141F"/>
<path d="M121.833 76.3584C123.811 76.3584 124.473 74.0928 123.84 72.8736C123.758 72.7406 123.711 72.5899 123.701 72.4343C123.691 72.2788 123.719 72.1231 123.782 71.9808C124.185 71.0208 126.192 69.2064 126.384 71.7792C126.384 72.0864 126.883 72.1824 127.094 71.7792C127.227 71.511 127.282 71.2109 127.254 70.913C127.225 70.615 127.113 70.3311 126.931 70.0933C126.75 69.8555 126.505 69.6734 126.225 69.5676C125.945 69.4617 125.641 69.4364 125.347 69.4944C123.792 69.8304 122.093 71.808 122.918 73.4112C123.197 73.9584 122.918 75.0912 122.342 75.2256C121.2 75.4752 121.123 74.9376 120.845 75.456C120.566 75.9744 121.181 76.3584 121.833 76.3584Z" fill="#17141F"/>
<path d="M115.2 32.6401C115.258 31.9873 115.066 30.1537 116.688 29.7121C117.994 29.3473 118.714 29.4721 119.299 28.4545C119.798 27.5905 119.299 27.3217 119.77 26.4289C121.344 23.5489 120.538 23.9905 122.65 23.0689C128.294 20.5633 123.61 17.3665 123.11 18.9793C122.851 19.7569 123.35 20.1985 123.686 19.4497C123.859 19.0561 125.693 20.4769 123.533 21.6577C121.536 22.7425 120.566 22.7329 120.029 24.1057C119.491 25.4785 118.627 26.3521 118.656 27.6193C118.656 28.5217 117.821 28.4929 116.851 28.6849C116.084 28.895 115.412 29.3627 114.949 30.0095C114.486 30.6563 114.259 31.4428 114.307 32.2369C114.326 33.9649 115.075 34.1377 115.2 32.6401Z" fill="#17141F"/>
<path d="M103.104 40.3873C102.483 40.3729 101.865 40.4904 101.293 40.732C100.72 40.9736 100.205 41.3338 99.7822 41.7889C99.2158 42.3937 99.7822 42.9409 100.358 42.4513C100.787 42.0081 101.32 41.6793 101.909 41.4948C102.497 41.3104 103.123 41.2762 103.728 41.3953C110.909 42.3553 111.408 51.2161 118.752 59.9713C119.625 60.9985 120.307 60.6241 119.971 60.0193C118.616 58.3457 117.362 56.5922 116.217 54.7681C110.16 43.9009 109.574 41.3473 103.104 40.3873Z" fill="#17141F"/>
<path d="M103.68 49.296C103.344 49.6512 103.094 50.4192 103.594 50.256C104.285 49.9776 104.938 49.1616 106.675 49.1808C109.085 49.1808 109.958 52.7136 110.122 50.9184C109.92 48.0672 106.426 46.3488 103.68 49.296Z" fill="#17141F"/>
<path d="M105.341 60.5952C105.859 60.5952 105.888 60.2496 106.022 59.7216C105.869 58.704 105.062 58.7616 104.87 59.3472C104.678 59.9328 104.774 60.5664 105.341 60.5952Z" fill="#17141F"/>
<path d="M97.5648 41.664C97.5648 42.3072 97.5648 43.4784 98.2272 43.3728C99.1008 43.2384 97.6608 41.6064 98.9952 39.5328C99.1436 39.2454 99.3541 38.9946 99.6115 38.7987C99.8689 38.6027 100.167 38.4665 100.483 38.4C100.594 38.3547 100.691 38.2813 100.766 38.1871C100.84 38.0928 100.888 37.9809 100.906 37.8624C100.858 36.5952 97.5264 37.9872 97.5648 41.664Z" fill="#17141F"/>
<path d="M91.2 6.1056C91.488 6.1824 91.9008 5.7696 92.3616 5.6928C93.0528 5.5776 94.8864 5.52 95.2416 6.2208C96.384 8.4192 92.5152 11.1648 92.0448 14.1984C91.7472 16.1184 93.7632 16.6176 96.8448 17.472C99.504 18.2016 94.5504 21.5904 96.0672 23.6352C96.3168 23.9616 97.0272 24.5952 97.6032 25.2C99.0528 26.7168 97.1712 28.7424 98.1216 28.944C99.072 29.1456 99.7728 25.9776 98.1216 24.3744C96.288 22.5312 96.096 23.1744 98.0448 19.7664C98.5536 18.8736 98.832 17.3088 97.7184 16.8288C96.6048 16.3488 96.7584 16.704 94.0896 15.6672C90.0192 14.1024 97.7568 9.456 95.9232 5.8368C95.5008 4.8 94.608 4.9152 93.3888 4.8C90.9312 4.7424 90.8448 6.0096 91.2 6.1056Z" fill="#17141F"/>
<path d="M96.7966 72.8447C96.7966 72.4991 96.5854 71.4911 95.779 71.4719C94.819 71.4719 94.675 72.9023 95.3662 73.6031C95.779 74.0351 96.5662 74.1311 96.7966 72.8447Z" fill="#17141F"/>
<path d="M93.2927 58.9728C93.2159 58.0128 92.4575 58.0129 92.3327 58.3777C91.7279 59.4625 92.9855 60.48 93.2927 58.9728Z" fill="#17141F"/>
<path d="M76.8 92.3905C54.9216 99.6769 55.68 99.1105 56.304 100.32C60.7488 109.565 60.5952 109.133 61.392 109.219C63.5808 108.586 81.4368 102.662 81.552 102.605C82.7808 102.182 82.0704 101.51 78.7872 94.8481C77.6352 92.4289 77.6736 92.1025 76.8 92.3905ZM80.9472 101.846L61.44 108.288C61.2096 108.288 61.5264 108.835 57.1872 100.253C56.9664 99.8209 55.8048 100.406 69.504 95.8177C71.8848 95.0209 74.1504 94.2241 76.6944 93.3889C77.3568 93.1777 76.8288 92.5249 79.5744 98.1889C81.312 101.875 81.3888 101.702 80.9568 101.846H80.9472Z" fill="#17141F"/>
<path d="M75.6863 101.146C75.5615 101.146 63.1295 104.986 62.2463 105.408C61.8143 105.59 61.4207 106.166 61.9487 106.301C62.1215 106.301 76.1663 102.202 76.9055 101.347C76.5215 100.637 76.1951 101.126 75.6863 101.146Z" fill="#17141F"/>
<path d="M64.0992 100.31C65.6832 100.032 65.6256 99.5233 66.5568 99.5713C68.3328 99.3313 69.0048 98.6113 70.6176 98.2081C72.2304 97.8049 72.6912 97.9201 73.9488 97.2481C74.256 97.0945 74.4672 96.5569 73.8144 96.4225C73.6992 96.4225 72.96 96.6433 71.8944 96.9121C68.1024 97.8721 67.5744 98.5825 66.5952 98.5633C65.4624 98.5633 65.5104 99.0241 63.8208 99.3985C59.9808 100.253 60.6048 100.618 59.5776 100.666C59.4528 100.666 59.2512 100.963 59.2128 101.078C59.1264 101.424 60.1728 101.626 60.672 101.347C61.74 100.791 62.9023 100.44 64.0992 100.31Z" fill="#17141F"/>
<path d="M67.3439 52.4064C68.7455 50.544 67.9199 50.8128 72.5375 52.4064C72.6336 52.4509 72.7413 52.4637 72.8452 52.443C72.949 52.4222 73.0436 52.369 73.1152 52.291C73.1868 52.213 73.2317 52.1142 73.2435 52.009C73.2553 51.9037 73.2333 51.7975 73.1807 51.7056C72.6753 50.6089 72.0914 49.5501 71.4335 48.5376C71.0399 48.0384 73.0655 45.8784 73.1039 44.6976C73.1615 42.96 69.5999 45.8496 68.8223 44.832C68.1983 44.016 67.2479 43.1136 66.6239 42.1248C66.3455 41.6736 65.8079 41.5104 65.7215 42.048C64.9823 46.9536 66.1727 45.744 63.4367 46.8C61.9103 47.3952 61.8623 47.3856 61.7759 47.8752C61.5071 49.4208 65.0783 49.6416 65.0879 50.3424C65.1455 53.5008 65.0207 53.3088 65.0879 53.9712C65.1015 54.06 65.1387 54.1436 65.1958 54.213C65.2529 54.2825 65.3276 54.3352 65.4122 54.3657C65.4967 54.3962 65.5879 54.4032 65.6762 54.3862C65.7644 54.3691 65.8464 54.3286 65.9135 54.2688C66.4416 53.6891 66.9201 53.0661 67.3439 52.4064ZM65.1839 49.1904C61.9007 47.9616 61.9007 48.2304 65.5103 46.9248C66.2975 46.6368 65.9231 44.9184 66.4703 43.44C69.8975 46.6464 67.0079 46.3776 72.0191 45.2256C71.2799 47.2032 69.7439 47.7696 70.6271 48.7968C71.1208 49.4879 71.5483 50.2239 71.9039 50.9952C72.1439 51.3984 70.9439 50.9952 69.2447 50.3616C68.2847 50.0064 68.5055 49.2864 66.2399 52.4544C65.3567 53.6928 66.6335 49.728 65.1839 49.1904Z" fill="#17141F"/>
<path d="M48.8641 35.6256C49.3249 35.1264 49.3345 35.1264 49.7569 35.6256C50.1868 36.1369 50.5129 36.7271 50.7169 37.3632C50.8897 37.9776 50.2369 37.6512 50.0353 37.6608C49.0753 37.6608 49.4689 38.3808 49.7089 38.496C52.0705 39.6384 53.0881 36.9216 53.1553 37.8144C53.2609 39.024 53.2513 40.3392 53.3089 41.9232C53.3089 42.6432 53.8945 43.1904 54.3841 42.7488C54.8737 42.3072 56.1793 40.9824 58.0321 39.1776C61.0657 36.2112 61.1905 36.2976 61.1521 35.712C60.7105 29.28 60.1921 30.912 62.3041 28.6176C64.8577 25.8624 69.9841 20.256 71.6449 16.896C74.2081 11.8176 75.2257 6.47041 72.8353 6.20161C69.6385 5.84641 64.0801 8.64001 61.3153 11.0688C59.3325 12.7667 57.4808 14.612 55.7761 16.5888C50.0161 22.9152 51.6481 21.888 49.0561 22.2336C43.8433 22.9056 45.6673 21.7824 39.1873 28.848C38.3905 29.7216 38.9569 30.3168 39.4753 30.3168C41.0312 30.1543 42.5968 30.1029 44.1601 30.1632C43.8888 30.4439 43.6895 30.7861 43.5791 31.1606C43.4688 31.535 43.4507 31.9306 43.5265 32.3136C43.7267 33.0745 44.128 33.7675 44.6881 34.32C45.0049 34.5216 45.2353 34.1664 45.1105 33.792C45.0529 33.6 44.0641 32.1408 44.3521 31.7856C44.6401 31.4304 45.3697 31.7856 47.4913 33.3984C48.0769 33.84 46.9537 34.2624 46.0033 35.664C45.4561 36.4896 46.4257 36.912 46.6849 37.104C46.9441 37.296 47.1841 37.3344 47.4433 37.152L48.8641 35.6256ZM44.1601 42.0864C37.4401 52.6464 35.9425 63.7056 41.1265 77.4528C41.2225 77.6928 41.5489 78.7776 41.8753 78.5568C42.9121 77.8752 37.4305 69.2352 39.2353 56.5248C40.8961 44.832 48.6145 38.0832 48.8353 37.0656C48.9505 36.5664 48.7681 36.3552 48.1729 36.5856C46.7021 38.3183 45.3609 40.1569 44.1601 42.0864ZM47.1553 32.0544C45.2833 30.6432 44.5441 31.2672 44.8993 30.6624C45.0721 30.3648 45.2449 30.0288 45.5233 30.1536C46.8577 30.2688 47.3185 30.7776 48.9313 31.872C49.2097 32.064 48.9889 32.2752 48.5473 32.7072C48.2881 32.9952 48.3457 32.9376 47.1937 32.0544H47.1553ZM47.0401 36.3936C46.3297 35.904 46.0129 36.9024 54.5665 26.9376C54.9889 26.4576 55.5265 25.9776 55.7857 26.6208C55.8145 26.6496 47.0881 36.3744 47.0401 36.3936ZM52.1761 37.3536C51.3313 38.0736 52.0897 37.3536 50.6305 35.4336C49.9585 34.5504 49.8721 34.5504 49.9969 34.4064C50.7745 33.4944 50.6113 33.0624 52.4737 36.7008C52.6657 36.96 52.4737 37.104 52.2049 37.3344L52.1761 37.3536ZM54.4033 41.6928C54.0961 42.0096 54.2401 42 53.9041 37.1904C53.9041 36.7392 57.7441 33.7344 58.9825 32.256C60.2209 30.7776 59.9425 31.0272 60.3553 35.4432C60.5569 35.8368 60.4801 35.6832 54.4321 41.6736L54.4033 41.6928ZM63.3601 10.848C65.2983 9.41742 67.4765 8.34457 69.7921 7.68001C73.4305 6.72001 73.0273 7.68001 73.2001 9.11041C73.1068 10.4689 72.809 11.8056 72.3169 13.0752C70.0033 18.72 70.2049 18.2112 69.5713 17.0784C66.6337 11.8464 62.5729 11.3376 63.3601 10.848ZM62.1217 11.808C63.3505 10.6464 70.3297 17.8176 69.3217 19.1616C66.3745 23.1168 56.1217 34.6368 53.4145 36.2976C52.8507 35.2003 52.209 34.1448 51.4945 33.1392C51.2545 32.784 51.2257 33.024 54.6145 29.2512C56.5345 27.0624 57.0817 26.8128 56.4097 25.9872C56.1217 25.632 55.3537 25.1136 54.8641 25.6128C54.3745 26.112 54.1057 26.448 51.6961 29.2128C49.4785 31.7472 49.9393 31.4592 49.1521 30.864C45.9841 28.4736 45.4177 30.3552 47.4433 27.7728C51.9861 22.1426 56.879 16.804 62.0929 11.7888L62.1217 11.808ZM44.7553 24C45.1489 23.5392 45.1489 23.616 49.8625 23.04C50.6017 22.944 48.5089 24.6432 46.9825 26.9472C46.6369 27.4464 45.3313 29.1936 44.8225 29.2608C44.8225 29.2608 40.0225 29.4048 40.0225 29.376C39.8209 29.2032 42.3841 26.7552 44.7553 24Z" fill="#17141F"/>
<path d="M68.6687 101.549C70.5887 100.992 70.7135 100.819 71.3951 100.81C71.5558 100.82 71.715 100.773 71.8436 100.676C71.9722 100.579 72.0618 100.439 72.0959 100.282C72.0959 99.1777 68.2559 100.934 66.4415 101.242C64.7903 101.52 61.0367 102.614 60.4895 103.21C60.1055 103.632 60.3167 103.872 60.8351 103.901C62.7551 103.248 62.4959 103.162 63.1871 102.941C67.1999 101.846 64.4351 102.768 68.6687 101.549Z" fill="#17141F"/>
<path d="M65.28 71.04C64.6848 71.1168 62.7072 71.5488 62.4 71.6352C61.8336 71.7792 60.0576 67.8528 59.6064 69.312C58.5024 72.9024 60.0192 72.3168 57.2064 72.5568C56.0544 72.6528 56.0352 72.96 56.064 73.5168C56.064 73.8912 56.1984 73.968 56.8896 74.3904C60.0096 76.3104 58.6464 74.9184 58.3872 78.4704C58.3872 78.96 58.6368 79.1904 59.0304 79.0656C59.9232 78.768 61.3344 76.1856 61.9872 76.5216C62.9317 76.8483 63.8931 77.1239 64.8672 77.3472C65.4144 77.5008 65.6448 77.2128 65.5776 76.7904C65.472 76.1184 64.7328 75.8304 63.9936 74.4672C63.8304 74.1504 63.8688 74.2944 65.7024 72.096C66.0192 71.6928 66.1632 70.9344 65.28 71.04ZM63.168 74.88C64.0608 76.4544 64.4256 76.3104 62.688 75.9264C60.672 75.4752 61.584 75.3408 59.4912 77.4624C59.2416 77.7216 59.5392 76.6656 59.616 75.6672C59.7024 74.4768 57.3984 74.0928 57.0624 73.4688C57.2256 73.4688 56.9376 73.4688 58.416 73.3248C60.24 73.1712 59.376 72.144 60.1728 70.512C60.8256 71.0688 61.4976 72.7392 62.0928 72.6144C66.96 71.4816 62.112 73.0176 63.168 74.88Z" fill="#17141F"/>
<path d="M61.6895 22.8672C66.3263 22.6272 65.9999 15.84 61.5455 15.9456C56.6399 16.5408 57.5327 23.04 61.6895 22.8672ZM61.1807 16.8864C61.5545 16.82 61.9383 16.8372 62.3047 16.9368C62.671 17.0363 63.0108 17.2157 63.2997 17.462C63.5885 17.7084 63.8193 18.0156 63.9754 18.3616C64.1315 18.7077 64.2091 19.084 64.2026 19.4636C64.1961 19.8432 64.1057 20.2166 63.9378 20.5571C63.77 20.8976 63.5288 21.1968 63.2317 21.4331C62.9346 21.6694 62.5889 21.8371 62.2193 21.924C61.8498 22.011 61.4656 22.015 61.0943 21.936C60.5105 21.8116 59.9882 21.4882 59.6166 21.0211C59.2451 20.5541 59.0475 19.9723 59.0577 19.3756C59.0679 18.7788 59.2853 18.2042 59.6726 17.7501C60.0599 17.296 60.593 16.9906 61.1807 16.8864Z" fill="#17141F"/>
<path d="M51.1006 86.7264C50.467 86.8416 50.3422 87.6864 51.1582 87.6864C55.3246 87.6192 55.5358 80.0736 51.523 80.1312C51.0867 80.1151 50.6512 80.1769 50.2366 80.3136C50.179 79.7664 51.1966 77.376 50.1214 75.5136C48.931 73.4592 45.4846 73.5936 44.3614 76.4256C43.9302 77.6506 43.7456 78.9487 43.8181 80.2454C43.8906 81.542 44.2188 82.8115 44.7838 83.9808C45.0046 84.4128 45.5614 84.1632 45.427 83.5872C42.547 75.3984 48.1822 73.2864 49.4494 76.2432C50.5054 78.7104 48.2206 81.4368 49.2094 82.0032C49.9102 82.3968 50.2654 80.8512 51.619 81.0432C53.3758 81.3504 53.6926 83.2608 53.4046 84.5376C52.915 86.64 51.5902 86.6304 51.1006 86.7264Z" fill="#17141F"/>
<path d="M41.1648 79.4304C35.7984 70.6176 34.4448 55.2096 41.0784 42.6528C42.6043 39.9775 44.314 37.4113 46.1952 34.9728C47.088 34.0992 46.1952 33.6384 45.7056 34.1952C40.1472 40.7712 35.7888 50.2944 35.7888 58.8768C35.7888 71.4528 38.9376 77.5776 40.512 79.4592C41.28 80.3424 41.6736 80.2656 41.1648 79.4304Z" fill="#17141F"/>
<path d="M36.7103 87.0143C31.9103 88.5215 32.4575 82.9535 37.2095 84.8831C37.2681 84.9186 37.3337 84.9409 37.4019 84.9484C37.47 84.9559 37.5389 84.9484 37.6038 84.9264C37.6688 84.9045 37.7281 84.8686 37.7777 84.8213C37.8273 84.7741 37.866 84.7165 37.8911 84.6527C38.1503 84.0671 37.6415 83.9231 37.1519 83.7599C34.5311 82.8863 37.4495 77.8847 41.0783 83.9903C41.3759 84.4895 41.8847 84.1439 41.7695 83.7599C41.0015 81.0239 37.9295 78.9599 36.0095 80.6399C35.6012 80.9851 35.3281 81.4634 35.2385 81.9905C35.1489 82.5175 35.2486 83.0593 35.5199 83.5199C33.2543 83.5775 32.6399 84.4799 32.3807 85.6607C31.8623 88.4447 36.3455 88.7711 37.4879 87.6767C37.9295 87.2351 37.5647 86.7455 36.7103 87.0143Z" fill="#17141F"/>
<path d="M30.1919 69.9551C30.0479 69.6671 29.9519 69.1103 29.2895 69.5135C26.5919 71.1551 27.1391 70.8959 26.4095 70.1183C25.3151 68.9759 25.0367 68.5343 24.4895 68.6687C24.2495 68.7359 24.3071 69.2255 24.3647 69.4847C25.0271 72.5567 25.2383 71.7407 23.9903 72.2015C23.7023 72.3167 23.4527 72.4511 22.2815 72.9407C22.1712 72.9913 22.0777 73.0724 22.0122 73.1745C21.9467 73.2766 21.9119 73.3954 21.9119 73.5167C21.9119 73.638 21.9467 73.7568 22.0122 73.8589C22.0777 73.961 22.1712 74.0422 22.2815 74.0927C25.8527 75.4271 25.0463 75.1775 25.2863 76.6847C25.5647 78.4127 25.6127 78.8447 25.9775 78.8831C26.1262 78.9032 26.2774 78.8736 26.4076 78.7989C26.5378 78.7243 26.6397 78.6088 26.6975 78.4703C28.1951 74.8319 27.2159 75.7919 28.6175 76.0415C31.0271 76.4735 31.1519 76.7135 31.4975 76.2911C31.8431 75.8687 31.1423 75.2447 30.7967 74.8511C28.5311 72.2399 29.2031 73.9679 30.1919 69.9551ZM29.4815 75.2063C28.9686 75.168 28.4704 75.0172 28.0223 74.7647C26.8127 74.3711 26.8127 76.7903 26.3327 77.2031C26.2165 76.6957 26.1522 76.1779 26.1407 75.6575C26.1407 74.6015 25.5647 74.5247 23.8175 73.5647C23.4335 73.3439 24.3071 73.2575 25.2959 72.7583C26.2847 72.2591 25.4975 71.2991 25.4783 70.6271C25.4783 70.2239 26.1503 71.1935 26.5727 71.7215C27.2255 72.5375 27.3023 71.2415 29.1359 70.6943C28.8287 72.2783 27.7631 72.6911 28.7903 73.7855C30.2879 75.3887 29.8847 75.2447 29.4815 75.2063Z" fill="#17141F"/>
</svg>
